<svg height="475pt" viewBox="0 -46 475.8 475" width="475pt" xmlns="http://www.w3.org/2000/svg"><path d="m213.402344 190.023438 12.488281-12.492188 41.480469 41.484375-12.488282 12.488281zm0 0" fill="#eee"/><path d="m254.886719 235.503906c-1.0625 0-2.078125-.425781-2.832031-1.167968l-41.480469-41.488282c-1.558594-1.558594-1.558594-4.09375 0-5.65625l12.496093-12.496094c1.503907-1.503906 4.160157-1.503906 5.65625 0l41.480469 41.488282c1.5625 1.558594 1.5625 4.097656 0 5.65625l-12.496093 12.496094c-.742188.742187-1.757813 1.167968-2.824219 1.167968zm-35.824219-45.480468 35.824219 35.832031 6.832031-6.832031-35.824219-35.839844zm0 0" fill="#63312d"/><path d="m67.222656 28.398438h24.328125v199.730468h-24.328125zm0 0" fill="#eee"/><path d="m268.992188 343.632812h-16v-189.921874l-93.40625-125.3125h-117.761719c-4.417969 0-8-3.582032-8-8v-8c0-4.414063 3.582031-8 8-8h123.785156c3.789063 0 7.359375 1.792968 9.621094 4.832031l99.378906 133.335937c1.542969 2.074219 2.375 4.585938 2.375 7.167969v185.898437c.007813 4.421876-3.578125 8-7.992187 8zm0 0" fill="#eee"/><path d="m276.988281 295.0625v-24h29.664063v24zm0 0" fill="#eee"/><path d="m306.65625 299.0625h-29.664062c-2.207032 0-4-1.789062-4-4v-24c0-2.207031 1.792968-4 4-4h29.664062c2.207031 0 4 1.792969 4 4v24c0 2.21875-1.792969 4-4 4zm-25.664062-8h21.664062v-16h-21.664062zm0 0" fill="#0277bd"/><path d="m330.648438 319.648438v-221.535157c0-4.417969-3.585938-8-8-8h-7.992188c-4.417969 0-8 3.582031-8 8v245.519531h157.136719c4.414062 0 8-3.585937 8-8v-7.992187c0-4.417969-3.585938-8-8-8h-133.144531zm0 0" fill="#eee"/><path d="m91.558594 232.128906h-24.328125c-2.207031 0-4-1.792968-4-4v-199.730468c0-2.207032 1.792969-4 4-4h24.328125c2.210937 0 4 1.792968 4 4v199.730468c0 2.214844-1.789063 4-4 4zm-20.328125-8h16.328125v-191.730468h-16.328125zm0 0" fill="#63312d"/><path d="m358.105469 227.832031h101.367187v91.808594h-101.367187zm0 0" fill="#52b8d9"/><path d="m459.464844 323.648438h-101.359375c-2.210938 0-4-1.792969-4-4v-91.816407c0-2.207031 1.789062-4 4-4h101.359375c2.207031 0 4 1.792969 4 4v91.816407c0 2.207031-1.785156 4-4 4zm-97.359375-8h93.359375v-83.816407h-93.359375zm0 0" fill="#63312d"/><path d="m330.648438 227.832031h101.367187v91.808594h-101.367187zm0 0" fill="#82d9ff"/><path d="m345.847656 243.03125h86.160156v-15.199219h-101.359374v91.808594h15.199218zm0 0" fill="#caf4ff"/><path d="m432.007812 323.648438h-101.359374c-2.207032 0-4-1.792969-4-4v-91.816407c0-2.207031 1.792968-4 4-4h101.359374c2.207032 0 4 1.792969 4 4v91.816407c0 2.207031-1.785156 4-4 4zm-97.359374-8h93.359374v-83.816407h-93.359374zm0 0" fill="#63312d"/><path d="m370.03125 227.832031h22.59375v30.601563h-22.59375zm0 0" fill="#f8f3f3"/><path d="m392.625 262.433594h-22.601562c-2.207032 0-4-1.792969-4-4v-30.601563c0-2.207031 1.792968-4 4-4h22.601562c2.207031 0 4 1.792969 4 4v30.601563c0 2.214844-1.785156 4-4 4zm-18.59375-8h14.601562v-22.601563h-14.601562zm0 0" fill="#63312d"/><path d="m358.105469 136.023438h101.367187v91.808593h-101.367187zm0 0" fill="#52b8d9"/><path d="m459.464844 231.832031h-101.359375c-2.210938 0-4-1.792969-4-4v-91.808593c0-2.207032 1.789062-4 4-4h101.359375c2.207031 0 4 1.792968 4 4v91.816406c0 2.199218-1.785156 3.992187-4 3.992187zm-97.359375-8h93.359375v-83.808593h-93.359375zm0 0" fill="#63312d"/><path d="m330.648438 136.023438h101.367187v91.808593h-101.367187zm0 0" fill="#82d9ff"/><path d="m345.847656 151.214844h86.160156v-15.191406h-101.359374v91.808593h15.199218zm0 0" fill="#caf4ff"/><path d="m432.007812 231.832031h-101.359374c-2.207032 0-4-1.792969-4-4v-91.808593c0-2.207032 1.792968-4 4-4h101.359374c2.207032 0 4 1.792968 4 4v91.816406c0 2.199218-1.785156 3.992187-4 3.992187zm-97.359374-8h93.359374v-83.808593h-93.359374zm0 0" fill="#63312d"/><path d="m370.03125 136.023438h22.59375v30.601562h-22.59375zm0 0" fill="#f8f3f3"/><path d="m392.625 170.625h-22.601562c-2.207032 0-4-1.792969-4-4v-30.601562c0-2.207032 1.792968-4 4-4h22.601562c2.207031 0 4 1.792968 4 4v30.601562c0 2.207031-1.785156 4-4 4zm-18.59375-8h14.601562v-22.601562h-14.601562zm0 0" fill="#63312d"/><path d="m358.105469 44.207031h101.367187v91.808594h-101.367187zm0 0" fill="#52b8d9"/><path d="m459.464844 140.023438h-101.359375c-2.210938 0-4-1.792969-4-4v-91.816407c0-2.207031 1.789062-4 4-4h101.359375c2.207031 0 4 1.792969 4 4v91.816407c0 2.207031-1.785156 4-4 4zm-97.359375-8h93.359375v-83.816407h-93.359375zm0 0" fill="#63312d"/><path d="m330.648438 44.207031h101.367187v91.808594h-101.367187zm0 0" fill="#82d9ff"/><path d="m345.847656 59.40625h86.160156v-15.199219h-101.359374v91.816407h15.199218zm0 0" fill="#caf4ff"/><path d="m432.007812 140.023438h-101.359374c-2.207032 0-4-1.792969-4-4v-91.816407c0-2.207031 1.792968-4 4-4h101.359374c2.207032 0 4 1.792969 4 4v91.816407c0 2.207031-1.785156 4-4 4zm-97.359374-8h93.359374v-83.816407h-93.359374zm0 0" fill="#63312d"/><path d="m370.03125 44.207031h22.59375v30.601563h-22.59375zm0 0" fill="#f8f3f3"/><path d="m392.625 78.808594h-22.601562c-2.207032 0-4-1.792969-4-4v-30.601563c0-2.207031 1.792968-4 4-4h22.601562c2.207031 0 4 1.792969 4 4v30.601563c0 2.214844-1.785156 4-4 4zm-18.59375-8h14.601562v-22.601563h-14.601562zm0 0" fill="#63312d"/><path d="m115.664062 270.496094h137.335938v73.136718h-137.335938zm0 0" fill="#f9dd9d"/><path d="m253 347.632812h-137.335938c-2.207031 0-4-1.792968-4-4v-73.136718c0-2.207032 1.792969-4 4-4h137.335938c2.207031 0 4 1.792968 4 4v73.136718c0 2.207032-1.792969 4-4 4zm-133.335938-8h129.335938v-65.136718h-129.335938zm0 0" fill="#63312d"/><path d="m211.664062 270.496094h-121.601562v-48.214844h105.601562c8.839844 0 16 7.160156 16 16zm0 0" fill="#f9a287"/><path d="m139.777344 143.496094v78.777344h-48.226563v-94.777344h32.226563c8.839844 0 16 7.167968 16 16zm0 0" fill="#f9a287"/><path d="m211.664062 274.496094h-121.601562c-2.207031 0-4-1.792969-4-4v-48.214844c0-2.210938 1.792969-4 4-4h105.601562c11.023438 0 20 8.964844 20 20v32.214844c0 2.207031-1.785156 4-4 4zm-117.601562-8h113.601562v-28.214844c0-6.617188-5.382812-12-12-12h-101.601562zm0 0" fill="#63312d"/><path d="m139.777344 226.28125h-48.21875c-2.207032 0-4-1.792969-4-4v-94.785156c0-2.207032 1.792968-4 4-4h32.21875c11.023437 0 20 8.96875 20 20v78.785156c0 2.207031-1.792969 4-4 4zm-44.21875-8h40.21875v-74.785156c0-6.617188-5.386719-12-12-12h-28.21875zm0 0" fill="#63312d"/><path d="m115.664062 343.632812h-111.664062v-145.136718h63.664062c26.511719 0 48 21.488281 48 48zm0 0" fill="#f9dd9d"/><path d="m115.664062 347.632812h-111.664062c-2.207031 0-4-1.792968-4-4v-145.136718c0-2.207032 1.792969-4 4-4h63.664062c28.671876 0 52 23.328125 52 52v97.136718c0 2.207032-1.785156 4-4 4zm-107.664062-8h103.664062v-93.136718c0-24.257813-19.734374-44-44-44h-59.664062zm0 0" fill="#63312d"/><path d="m115.0625 335.625c0 24.507812-19.867188 44.375-44.375 44.375s-44.375-19.867188-44.375-44.375 19.867188-44.378906 44.375-44.378906 44.375 19.871094 44.375 44.378906zm0 0" fill="#82d9ff"/><path d="m70.6875 384c-26.671875 0-48.375-21.703125-48.375-48.375s21.695312-48.378906 48.375-48.378906 48.375 21.707031 48.375 48.378906-21.703125 48.375-48.375 48.375zm0-88.753906c-22.261719 0-40.375 18.113281-40.375 40.378906 0 22.261719 18.113281 40.375 40.375 40.375 22.265625 0 40.375-18.113281 40.375-40.375 0-22.265625-18.117188-40.378906-40.375-40.378906zm0 0" fill="#63312d"/><path d="m87.28125 335.625c0 9.164062-7.429688 16.589844-16.59375 16.589844s-16.589844-7.425782-16.589844-16.589844 7.425782-16.59375 16.589844-16.59375 16.59375 7.429688 16.59375 16.59375zm0 0" fill="#52b8d9"/><path d="m70.6875 356.214844c-11.351562 0-20.589844-9.238282-20.589844-20.589844s9.238282-20.585938 20.589844-20.585938 20.59375 9.234376 20.59375 20.585938-9.242188 20.589844-20.59375 20.589844zm0-33.183594c-6.945312 0-12.589844 5.648438-12.589844 12.585938 0 6.941406 5.644532 12.589843 12.589844 12.589843s12.59375-5.648437 12.59375-12.589843c-.007812-6.929688-5.65625-12.585938-12.59375-12.585938zm0 0" fill="#63312d"/><path d="m234.046875 335.625c0 24.507812-19.867187 44.375-44.375 44.375s-44.375-19.867188-44.375-44.375 19.867187-44.378906 44.375-44.378906 44.375 19.871094 44.375 44.378906zm0 0" fill="#82d9ff"/><path d="m189.671875 384c-26.671875 0-48.375-21.703125-48.375-48.375s21.695313-48.378906 48.375-48.378906 48.375 21.707031 48.375 48.378906-21.695313 48.375-48.375 48.375zm0-88.753906c-22.265625 0-40.375 18.113281-40.375 40.378906 0 22.261719 18.109375 40.375 40.375 40.375s40.375-18.113281 40.375-40.375c0-22.265625-18.109375-40.378906-40.375-40.378906zm0 0" fill="#63312d"/><path d="m206.265625 335.625c0 9.164062-7.429687 16.589844-16.59375 16.589844s-16.59375-7.425782-16.59375-16.589844 7.429687-16.59375 16.59375-16.59375 16.59375 7.429688 16.59375 16.59375zm0 0" fill="#52b8d9"/><path d="m189.671875 356.214844c-11.351563 0-20.59375-9.238282-20.59375-20.589844s9.242187-20.585938 20.59375-20.585938 20.59375 9.234376 20.59375 20.585938-9.242187 20.589844-20.59375 20.589844zm0-33.183594c-6.945313 0-12.59375 5.648438-12.59375 12.585938 0 6.941406 5.648437 12.589843 12.59375 12.589843s12.59375-5.648437 12.59375-12.589843c0-6.929688-5.648437-12.585938-12.59375-12.585938zm0 0" fill="#63312d"/><path d="m17.894531 150.847656h49.335938v47.65625h-49.335938zm0 0" fill="#82d9ff"/><g fill="#63312d"><path d="m67.230469 202.496094h-49.335938c-2.207031 0-4-1.792969-4-4v-47.648438c0-2.207031 1.792969-4 4-4h49.335938c2.210937 0 4 1.792969 4 4v47.648438c0 2.207031-1.789063 4-4 4zm-45.335938-8h41.335938v-39.648438h-41.335938zm0 0"/><path d="m268.992188 347.640625h-16c-2.207032 0-4-1.792969-4-4v-188.601563l-91.417969-122.640624h-115.75c-6.617188 0-12-5.382813-12-12v-8c0-6.613282 5.382812-12 12-12h123.785156c5.023437 0 9.824219 2.410156 12.832031 6.441406l99.375 133.335937c2.046875 2.746094 3.167969 6.144531 3.167969 9.558594v185.90625c.007813 6.617187-5.375 12-11.992187 12zm-12-8h12c2.207031 0 4-1.800781 4-4v-185.90625c0-1.710937-.558594-3.40625-1.585938-4.78125l-99.382812-133.328125c-1.503907-2.015625-3.894532-3.21875-6.414063-3.21875h-123.785156c-2.207031 0-4 1.800781-4 4v8c0 2.203125 1.792969 4 4 4h117.761719c1.261718 0 2.453124.59375 3.207031 1.609375l93.398437 125.3125c.511719.6875.792969 1.527344.792969 2.390625v185.921875zm0 0"/><path d="m306.65625 299.0625h-29.664062c-2.207032 0-4-1.789062-4-4v-24c0-2.207031 1.792968-4 4-4h29.664062c2.207031 0 4 1.792969 4 4v24c0 2.21875-1.792969 4-4 4zm-25.664062-8h21.664062v-16h-21.664062zm0 0"/><path d="m463.792969 347.640625h-157.136719c-2.207031 0-4-1.792969-4-4v-245.519531c0-6.617188 5.382812-12 12-12h7.992188c6.617187 0 12 5.382812 12 12v217.527344h129.152343c6.613281 0 12 5.382812 12 12v7.992187c-.007812 6.617187-5.394531 12-12.007812 12zm-153.136719-8h153.136719c2.207031 0 4-1.800781 4-4v-7.992187c0-2.199219-1.792969-4-4-4h-133.144531c-2.207032 0-4-1.792969-4-4v-221.535157c0-2.203125-1.792969-4-4-4h-7.992188c-2.207031 0-4 1.796875-4 4zm0 0"/></g><path d="m192.664062 198.273438c-3.449218-3.449219-3.449218-9.042969 0-12.496094l28.992188-28.992188c3.449219-3.449218 9.039062-3.449218 12.496094 0 3.449218 3.445313 3.449218 9.039063 0 12.496094l-28.992188 28.992188c-3.457031 3.445312-9.046875 3.445312-12.496094 0zm0 0" fill="#82d9ff"/><path d="m198.910156 204.855469c-3.421875 0-6.644531-1.328125-9.070312-3.757813-2.425782-2.425781-3.761719-5.640625-3.761719-9.074218 0-3.429688 1.335937-6.648438 3.761719-9.078126l28.992187-28.992187c5-5 13.144531-5 18.144531 0 2.429688 2.429687 3.757813 5.648437 3.757813 9.078125 0 3.433594-1.335937 6.648438-3.757813 9.074219l-28.992187 28.992187c-2.425781 2.421875-5.640625 3.757813-9.074219 3.757813zm28.992188-46.648438c-1.238282 0-2.476563.472657-3.414063 1.410157l-28.992187 28.992187c-.910156.910156-1.417969 2.125-1.417969 3.421875 0 1.289062.507813 2.503906 1.417969 3.417969 1.832031 1.832031 5.007812 1.832031 6.832031 0l28.992187-28.992188c.910157-.914062 1.414063-2.128906 1.414063-3.417969 0-1.296874-.503906-2.503906-1.414063-3.421874-.9375-.9375-2.175781-1.410157-3.417968-1.410157zm0 0" fill="#63312d"/></svg>