<svg height="470pt" viewBox="0 -22 470.27204 470" width="470pt" xmlns="http://www.w3.org/2000/svg"><path d="m422.753906 253.574219.140625-79.503907-55.871093-12.589843c-2.28125-6.726563-4.855469-13.242188-7.960938-19.542969l30.671875-48.226562-56.160156-56.261719-48.292969 30.589843c-6.296875-3.109374-12.792969-5.71875-19.519531-8.007812l-12.496094-55.878906h-79.488281l-12.496094 55.878906c-6.359375 2.167969-12.527344 4.5625-18.503906 7.464844l-48.023438-30.910156-56.578125 55.855468 30.34375 48.488282c-3.152343 6.277343-5.832031 12.734374-8.167969 19.445312l-55.917968 12.183594-.433594 79.503906 55.839844 12.800781c2.257812 6.746094 4.777344 13.273438 7.855468 19.59375l-30.832031 48.09375 55.960938 56.472657 48.421875-30.421876c6.289062 3.140626 12.753906 5.796876 19.472656 8.109376l12.28125 55.914062 79.503906.285156 12.695313-55.855468c6.738281-2.269532 13.257812-4.816407 19.570312-7.902344l48.160157 30.75 56.367187-56.0625-30.511719-48.359375c3.125-6.296875 5.757813-12.777344 8.0625-19.488281zm0 0" fill="#f9a287"/><path d="m164.457031 67.488281c5.976563-2.902343 12.152344-5.296875 18.503907-7.464843l12.496093-55.878907h-21.679687l-12.496094 55.878907c-1.816406.617187-3.578125 1.3125-5.359375 1.96875zm0 0" fill="#ffc8bb"/><path d="m194.695312 422.609375-12.277343-55.914063c-6.722657-2.320312-13.1875-4.976562-19.472657-8.109374l-8.890624 5.582031c2.210937.863281 4.410156 1.742187 6.671874 2.527343l12.28125 55.914063 79.503907.285156.015625-.078125zm0 0" fill="#ffc8bb"/><path d="m58.550781 332.535156 30.832031-48.09375c-3.078124-6.3125-5.597656-12.847656-7.855468-19.59375l-55.839844-12.800781.433594-79.503906 55.917968-12.183594c2.328126-6.710937 5.015626-13.167969 8.167969-19.449219l-30.34375-48.484375 48.015625-47.410156-13.125-8.449219-56.578125 55.875 30.34375 48.488282c-3.152343 6.277343-5.832031 12.734374-8.167969 19.445312l-55.917968 12.183594-.433594 79.503906 55.832031 12.800781c2.257813 6.746094 4.777344 13.273438 7.855469 19.59375l-30.832031 48.09375 55.960937 56.472657 13.359375-8.398438zm0 0" fill="#ffc8bb"/><path d="m252.511719 426.894531c-.007813 0-.007813 0-.015625 0l-79.503906-.285156c-1.871094-.007813-3.496094-1.3125-3.886719-3.144531l-11.808594-53.738282c-5.640625-2.015624-10.839844-4.183593-15.800781-6.566406l-46.542969 29.238282c-1.59375.976562-3.648437.753906-4.96875-.574219l-55.960937-56.472657c-1.3125-1.328124-1.527344-3.390624-.519532-4.96875l29.625-46.214843c-2.234375-4.792969-4.296875-9.9375-6.359375-15.910157l-53.65625-12.296874c-1.832031-.417969-3.1210935-2.050782-3.113281-3.921876l.433594-79.503906c.007812-1.871094 1.320312-3.488281 3.152344-3.878906l53.742187-11.710938c1.992187-5.519531 4.175781-10.730468 6.625-15.785156l-29.167969-46.601562c-.992187-1.589844-.753906-3.65625.574219-4.964844l56.578125-55.851562c1.34375-1.324219 3.398438-1.527344 4.972656-.519532l46.152344 29.707032c4.464844-2.074219 9.257812-3.992188 14.808594-5.945313l11.992187-53.703125c.417969-1.832031 2.03125-3.128906 3.90625-3.128906h79.503907c1.871093 0 3.496093 1.296875 3.902343 3.128906l12 53.710938c5.710938 2.007812 10.929688 4.152343 15.839844 6.488281l46.417969-29.402344c1.558594-.988281 3.628906-.773437 4.964844.554687l56.167968 56.261719c1.328125 1.328125 1.554688 3.394531.546875 4.976563l-29.472656 46.34375c2.296875 4.875 4.421875 10.105468 6.449219 15.855468l53.695312 12.113282c1.824219.410156 3.117188 2.03125 3.117188 3.90625l-.148438 79.503906c0 1.871094-1.304687 3.496094-3.136718 3.894531l-53.722657 11.894531c-2.023437 5.679688-4.175781 10.890626-6.527343 15.824219l29.320312 46.488281c1 1.585938.769531 3.648438-.558594 4.96875l-56.375 56.054688c-1.328125 1.3125-3.394531 1.546875-4.976562.539062l-46.273438-29.554687c-4.832031 2.257813-10.0625 4.367187-15.886718 6.402344l-12.199219 53.671875c-.425781 1.832031-2.042969 3.117187-3.90625 3.117187zm-76.28125-8.277343 73.097656.269531 11.984375-52.726563c.304688-1.359375 1.304688-2.464844 2.625-2.902344 7.207031-2.433593 13.453125-4.945312 19.085938-7.714843 1.25-.605469 2.738281-.519531 3.914062.21875l45.453125 29.03125 51.832031-51.546875-28.796875-45.652344c-.746093-1.175781-.824219-2.664062-.203125-3.914062 2.890625-5.808594 5.464844-12.023438 7.867188-19.015626.453125-1.3125 1.550781-2.296874 2.910156-2.601562l52.769531-11.6875.132813-73.101562-52.742188-11.890626c-1.359375-.304687-2.464844-1.292968-2.902344-2.613281-2.410156-7.105469-4.945312-13.335937-7.761718-19.058593-.617188-1.246094-.535156-2.734376.207031-3.910157l28.945313-45.519531-51.640626-51.730469-45.582031 28.875c-1.179687.742188-2.671875.804688-3.914062.199219-5.785157-2.863281-12.007813-5.417969-19.03125-7.808594-1.320313-.457031-2.3125-1.550781-2.617188-2.914062l-11.792969-52.757813h-73.09375l-11.785156 52.757813c-.304687 1.363281-1.296875 2.464844-2.617187 2.914062-7.03125 2.390625-12.765625 4.703125-18.046875 7.261719-1.253906.625-2.742188.53125-3.910156-.222656l-45.328126-29.167969-52.015624 51.34375 28.648437 45.777344c.742187 1.183594.8125 2.671875.175781 3.917968-3.019531 6.015626-5.625 12.21875-7.960937 18.96875-.464844 1.3125-1.570313 2.296876-2.929688 2.59375l-52.789062 11.496094-.402344 73.09375 52.710937 12.082032c1.363282.3125 2.464844 1.304687 2.90625 2.625 2.496094 7.453124 4.917969 13.519531 7.65625 19.109374.613282 1.257813.527344 2.746094-.226562 3.914063l-29.101562 45.398437 51.457031 51.914063 45.71875-28.730469c1.175781-.742187 2.664062-.816406 3.910156-.183594 5.855469 2.9375 12.074219 5.519532 18.984375 7.914063 1.320312.453125 2.304688 1.558594 2.601562 2.917969zm0 0" fill="#63312d"/><path d="m285.28125 68.039062 22.460938-14.222656-11.101563-49.664062h-43.367187l12.488281 55.878906c6.726562 2.28125 13.222656 4.890625 19.519531 8.007812zm0 0" fill="#db785a"/><path d="m94.753906 36.574219 48.023438 30.914062c5.976562-2.902343 12.144531-5.296875 18.503906-7.464843l1.671875-7.464844-24.832031-15.972656h-43.367188zm0 0" fill="#db785a"/><path d="m160.726562 366.695312c-6.71875-2.320312-13.183593-4.976562-19.46875-8.109374l-48.425781 30.421874h43.367188l25.855469-16.246093zm0 0" fill="#db785a"/><path d="m466.128906 253.574219.144532-79.503907-55.875-12.589843c-2.277344-6.726563-4.855469-13.242188-7.957032-19.535157l30.664063-48.226562-56.167969-56.261719h-43.371094l56.160156 56.261719-30.664062 48.226562c3.105469 6.300782 5.679688 12.808594 7.960938 19.535157l55.871093 12.589843-.140625 79.503907-55.898437 12.386719c-2.304688 6.71875-4.933594 13.199218-8.0625 19.488281l30.511719 48.359375-56.367188 56.0625h43.367188l56.367187-56.0625-30.511719-48.359375c3.128906-6.296875 5.761719-12.777344 8.0625-19.488281zm0 0" fill="#db785a"/><path d="m284.777344 359.136719c-6.304688 3.09375-12.832032 5.640625-19.570313 7.910156l-12.664062 55.695313 43.335937.160156 11.257813-49.496094zm0 0" fill="#db785a"/><g fill="#63312d"><path d="m285.28125 72.03125c-.609375 0-1.210938-.144531-1.777344-.414062-5.785156-2.863282-12.007812-5.417969-19.03125-7.808594-1.320312-.457032-2.3125-1.550782-2.617187-2.914063l-12.496094-55.878906c-.261719-1.183594.023437-2.429687.785156-3.375.765625-.945313 1.910157-1.503906 3.128907-1.503906h43.375c1.871093 0 3.496093 1.296875 3.902343 3.128906l11.105469 49.664063c.367188 1.644531-.34375 3.351562-1.769531 4.253906l-22.46875 14.222656c-.648438.417969-1.402344.625-2.136719.625zm-16.105469-15.046875c5.710938 2.007813 10.929688 4.152344 15.839844 6.488281l18.207031-11.527344-9.789062-43.792968h-35.175782zm0 0"/><path d="m142.777344 71.488281c-.761719 0-1.503906-.207031-2.167969-.632812l-48.023437-30.902344c-1.496094-.960937-2.167969-2.792969-1.675782-4.496094.496094-1.703125 2.066406-2.871093 3.832032-2.871093h43.371093c.765625 0 1.511719.214843 2.167969.628906l24.832031 15.976562c1.414063.914063 2.101563 2.601563 1.742188 4.234375l-1.664063 7.46875c-.304687 1.371094-1.296875 2.472657-2.617187 2.921875-7.03125 2.390625-12.765625 4.703125-18.046875 7.261719-.558594.273437-1.160156.410156-1.75.410156zm-34.417969-30.902343 34.703125 22.335937c4.464844-2.074219 9.25-3.992187 14.800781-5.945313l.578125-2.558593-21.503906-13.832031zm0 0"/><path d="m136.199219 393.015625h-43.367188c-1.785156 0-3.351562-1.175781-3.839843-2.886719-.496094-1.722656.199218-3.542968 1.71875-4.503906l48.425781-30.433594c1.175781-.742187 2.664062-.816406 3.910156-.183594 5.90625 2.953126 12.121094 5.535157 18.984375 7.914063 1.320312.453125 2.304688 1.558594 2.601562 2.917969l1.328126 6.0625c.359374 1.648437-.351563 3.355468-1.785157 4.25l-25.855469 16.246094c-.632812.402343-1.367187.617187-2.121093.617187zm-29.488281-8h28.328124l22.503907-14.144531-.246094-1.144532c-5.609375-2.007812-10.816406-4.167968-15.800781-6.574218zm0 0"/><path d="m376.304688 393.886719h-43.367188c-1.617188 0-3.082031-.976563-3.699219-2.480469-.613281-1.496094-.269531-3.214844.875-4.359375l54.09375-53.816406-28.800781-45.644531c-.742188-1.179688-.820312-2.664063-.199219-3.914063 2.890625-5.808594 5.464844-12.023437 7.863281-19.015625.457032-1.3125 1.554688-2.296875 2.914063-2.601562l52.769531-11.6875.132813-73.101563-52.742188-11.890625c-1.359375-.304688-2.464843-1.296875-2.90625-2.613281-2.40625-7.105469-4.941406-13.335938-7.757812-19.058594-.617188-1.246094-.535157-2.734375.207031-3.910156l28.945312-45.519531-53.898437-53.992188c-1.148437-1.152344-1.488281-2.863281-.863281-4.359375s2.082031-2.472656 3.695312-2.472656h43.378906c1.0625 0 2.078126.421875 2.832032 1.167969l56.167968 56.261718c1.328126 1.328125 1.550782 3.394532.542969 4.976563l-29.480469 46.34375c2.296876 4.871093 4.425782 10.105469 6.449219 15.855469l53.695313 12.113281c1.824218.40625 3.121094 2.03125 3.121094 3.902343l-.144532 79.503907c0 1.875-1.304687 3.496093-3.136718 3.898437l-53.726563 11.894532c-2.007813 5.648437-4.160156 10.855468-6.53125 15.824218l29.320313 46.480469c1 1.585937.769531 3.648437-.558594 4.96875l-56.367188 56.078125c-.753906.746094-1.769531 1.167969-2.824218 1.167969zm-33.664063-8.007813 32.023437.007813 52.921876-52.648438-28.800782-45.644531c-.746094-1.175781-.824218-2.664062-.199218-3.914062 2.910156-5.855469 5.484374-12.078126 7.863281-19.007813.453125-1.320313 1.550781-2.304687 2.910156-2.609375l52.777344-11.6875.128906-73.101562-52.746094-11.890626c-1.359375-.304687-2.464843-1.292968-2.902343-2.613281-2.410157-7.105469-4.945313-13.335937-7.761719-19.058593-.617188-1.246094-.535157-2.734376.207031-3.910157l28.953125-45.519531-52.726563-52.824219h-32.074218l49.34375 49.4375c1.328125 1.328125 1.554687 3.394531.546875 4.976563l-29.472657 46.34375c2.296876 4.875 4.421876 10.105468 6.445313 15.855468l53.699219 12.113282c1.824218.410156 3.117187 2.03125 3.117187 3.90625l-.152343 79.503906c0 1.871094-1.300782 3.496094-3.132813 3.894531l-53.722656 11.894531c-2.023438 5.679688-4.175781 10.890626-6.527344 15.824219l29.320313 46.480469c1 1.585938.769531 3.648438-.558594 4.96875zm0 0"/><path d="m295.886719 426.894531c-.007813 0-.007813 0-.015625 0l-43.335938-.160156c-1.207031-.007813-2.359375-.558594-3.117187-1.503906-.753907-.949219-1.042969-2.191407-.769531-3.375l12.65625-55.695313c.304687-1.359375 1.304687-2.464844 2.625-2.902344 7.207031-2.433593 13.453124-4.945312 19.085937-7.714843 1.25-.605469 2.738281-.519531 3.914063.21875l22.351562 14.269531c1.421875.914062 2.117188 2.617188 1.742188 4.257812l-11.238282 49.488282c-.417968 1.832031-2.03125 3.117187-3.898437 3.117187zm-38.328125-8.140625 35.144531.132813 9.90625-43.613281-18.105469-11.5625c-4.832031 2.257812-10.0625 4.367187-15.886718 6.402343zm0 0"/></g><path d="m334.792969 213.519531c0 67.015625-54.328125 121.34375-121.34375 121.34375-67.019531 0-121.34375-54.328125-121.34375-121.34375s54.324219-121.34375 121.34375-121.34375c67.015625 0 121.34375 54.328125 121.34375 121.34375zm0 0" fill="#f8f3f3"/><path d="m213.449219 338.863281c-69.121094 0-125.34375-56.222656-125.34375-125.34375 0-69.121093 56.222656-125.34375 125.34375-125.34375 69.117187 0 125.351562 56.222657 125.351562 125.34375 0 69.121094-56.234375 125.34375-125.351562 125.34375zm0-242.6875c-64.707031 0-117.34375 52.640625-117.34375 117.34375s52.636719 117.34375 117.34375 117.34375c64.710937 0 117.351562-52.640625 117.351562-117.34375s-52.640625-117.34375-117.351562-117.34375zm0 0" fill="#63312d"/><path d="m389.304688 329.816406h43.367187v8h-43.367187zm0 0" fill="#63312d"/><path d="m389.734375 89.710938h43.378906v8h-43.378906zm0 0" fill="#63312d"/><path d="m423.679688 170.574219h41.257812v8h-41.257812zm0 0" fill="#63312d"/><path d="m422.753906 249.167969h41.167969v8h-41.167969zm0 0" fill="#63312d"/><path d="m129.136719 300.671875c21.839843 21.128906 51.535156 34.191406 84.320312 34.191406 32.78125 0 62.480469-13.0625 84.320313-34.191406v-115.488281h-168.640625zm0 0" fill="#82d9ff"/><path d="m145.136719 201.183594h152.640625v-16h-168.640625v115.488281c4.933593 4.777344 10.320312 9.070313 16 12.960937zm0 0" fill="#caf4ff"/><path d="m213.449219 338.863281c-32.625 0-63.554688-12.535156-87.097657-35.3125-.785156-.75-1.214843-1.789062-1.214843-2.871093v-115.496094c0-2.207032 1.792969-4 4-4h168.632812c2.207031 0 4 1.792968 4 4v115.496094c0 1.089843-.441406 2.128906-1.21875 2.871093-23.542969 22.777344-54.472656 35.3125-87.101562 35.3125zm-80.3125-39.894531c21.878906 20.582031 50.335937 31.894531 80.3125 31.894531 29.984375 0 58.4375-11.3125 80.320312-31.894531v-109.785156h-160.632812zm0 0" fill="#63312d"/><path d="m235.390625 240.929688-7.328125 5.65625-7.328125-5.65625-7.316406 5.65625-7.296875-5.65625-7.304688 5.65625-7.304687-5.65625v-55.746094h43.878906zm0 0" fill="#f8f3f3"/><path d="m198.816406 250.585938c-.863281 0-1.726562-.28125-2.449218-.832032l-7.304688-5.65625c-.984375-.761718-1.550781-1.929687-1.550781-3.167968v-55.746094c0-2.207032 1.792969-4 4-4h43.871093c2.210938 0 4 1.792968 4 4v55.746094c0 1.238281-.566406 2.40625-1.550781 3.167968l-7.320312 5.65625c-1.441407 1.109375-3.457031 1.109375-4.886719 0l-4.882812-3.769531-4.871094 3.769531c-1.453125 1.117188-3.464844 1.101563-4.894532 0l-4.839843-3.761718-4.855469 3.761718c-.738281.550782-1.601562.832032-2.464844.832032zm21.917969-13.65625c.859375 0 1.730469.277343 2.449219.832031l4.878906 3.765625 3.320312-2.558594v-49.785156h-35.871093v49.785156l3.304687 2.550781 4.855469-3.757812c1.441406-1.113281 3.449219-1.113281 4.894531 0l4.851563 3.765625 4.863281-3.765625c.726562-.554688 1.597656-.832031 2.453125-.832031zm0 0" fill="#63312d"/></svg>