<svg height="470pt" viewBox="0 -82 470.26401 470" width="470pt" xmlns="http://www.w3.org/2000/svg"><path d="m135.136719 302.085938c25.40625 0 46-20.59375 46-46 0-25.410157-20.59375-46-46-46h-25.878907v92zm0 0" fill="#52b8d9"/><path d="m135.136719 306.085938h-25.878907c-2.210937 0-4-1.792969-4-4v-92c0-2.210938 1.789063-4 4-4h25.878907c27.566406 0 50 22.429687 50 50 0 27.566406-22.433594 50-50 50zm-21.878907-8h21.878907c23.160156 0 42-18.84375 42-42 0-23.160157-18.839844-42-42-42h-21.878907zm0 0" fill="#63312d"/><path d="m155.246094 256.085938c0 25.402343-20.59375 46-46 46-25.402344 0-46-20.597657-46-46 0-25.40625 20.597656-46 46-46 25.40625 0 46 20.59375 46 46zm0 0" fill="#84dbff"/><path d="m109.257812 306.085938c-27.570312 0-50-22.433594-50-50 0-27.570313 22.429688-50 50-50 27.566407 0 50 22.429687 50 50 0 27.566406-22.433593 50-50 50zm0-92c-23.160156 0-42 18.839843-42 42 0 23.15625 18.839844 42 42 42 23.15625 0 42-18.84375 42-42 0-23.160157-18.851562-42-42-42zm0 0" fill="#63312d"/><path d="m127.246094 256.085938c0 9.9375-8.058594 18-18 18-9.9375 0-18-8.0625-18-18 0-9.941407 8.0625-18 18-18 9.941406 0 18 8.058593 18 18zm0 0" fill="#f8f3f3"/><path d="m109.257812 278.085938c-12.136718 0-22-9.867188-22-22 0-12.136719 9.863282-22 22-22 12.132813 0 22 9.863281 22 22 0 12.132812-9.875 22-22 22zm0-36c-7.722656 0-14 6.277343-14 14 0 7.71875 6.277344 14 14 14 7.71875 0 14-6.28125 14-14 0-7.722657-6.289062-14-14-14zm0 0" fill="#63312d"/><path d="m378.945312 302.085938c25.40625 0 46-20.59375 46-46 0-25.410157-20.59375-46-46-46h-25.890624v92zm0 0" fill="#52b8d9"/><path d="m378.945312 306.085938h-25.890624c-2.207032 0-4-1.792969-4-4v-92c0-2.210938 1.792968-4 4-4h25.882812c27.566406 0 50 22.429687 50 50 0 27.566406-22.425781 50-49.992188 50zm-21.890624-8h21.882812c23.160156 0 42-18.84375 42-42 0-23.160157-18.839844-42-42-42h-21.882812zm0 0" fill="#63312d"/><path d="m399.054688 256.085938c0 25.402343-20.59375 46-46 46-25.402344 0-46-20.597657-46-46 0-25.40625 20.597656-46 46-46 25.40625 0 46 20.59375 46 46zm0 0" fill="#84dbff"/><path d="m353.054688 306.085938c-27.566407 0-50-22.433594-50-50 0-27.570313 22.433593-50 50-50 27.570312 0 50 22.429687 50 50 0 27.566406-22.421876 50-50 50zm0-92c-23.160157 0-42 18.839843-42 42 0 23.15625 18.839843 42 42 42 23.160156 0 42-18.84375 42-42 0-23.160157-18.839844-42-42-42zm0 0" fill="#63312d"/><path d="m371.054688 256.085938c0 9.9375-8.058594 18-18 18-9.941407 0-18-8.0625-18-18 0-9.941407 8.058593-18 18-18 9.941406 0 18 8.058593 18 18zm0 0" fill="#f8f3f3"/><path d="m353.054688 278.085938c-12.132813 0-22-9.867188-22-22 0-12.136719 9.867187-22 22-22 12.136718 0 22 9.863281 22 22 0 12.132812-9.863282 22-22 22zm0-36c-7.71875 0-14 6.277343-14 14 0 7.71875 6.28125 14 14 14 7.722656 0 14-6.28125 14-14 0-7.722657-6.277344-14-14-14zm0 0" fill="#63312d"/><path d="m388.945312 256.085938c0 9.9375-8.058593 18-18 18-9.941406 0-18-8.0625-18-18 0-9.941407 8.058594-18 18-18 9.941407 0 18 8.058593 18 18zm0 0" fill="#f8f3f3"/><path d="m370.953125 278.085938c-12.136719 0-22-9.867188-22-22 0-12.136719 9.863281-22 22-22s22 9.863281 22 22c0 12.132812-9.875 22-22 22zm0-36c-7.722656 0-14 6.277343-14 14 0 7.71875 6.277344 14 14 14 7.71875 0 14-6.28125 14-14 0-7.722657-6.289063-14-14-14zm0 0" fill="#63312d"/><path d="m319.136719 225.125h-254.703125v-204.992188c0-8.839843 7.160156-16 16-16h222.703125c8.839843 0 16 7.160157 16 16zm0 0" fill="#db785a"/><path d="m319.136719 229.117188h-254.703125c-2.210938 0-4-1.792969-4-4v-204.984376c0-11.023437 8.964844-20 20-20h222.703125c11.03125 0 20 8.976563 20 20v204.984376c0 2.214843-1.792969 4-4 4zm-250.703125-8h246.703125v-200.984376c0-6.617187-5.382813-12-12-12h-222.703125c-6.617188 0-12 5.382813-12 12zm0 0" fill="#63312d"/><path d="m271.136719 225.125h-254.703125v-204.992188c0-8.839843 7.160156-16 16-16h222.703125c8.839843 0 16 7.160157 16 16zm0 0" fill="#f9a287"/><path d="m32.433594 28.132812c0-4.417968 3.582031-8 8-8h230.703125c0-8.839843-7.160157-16-16-16h-222.703125c-8.839844 0-16 7.160157-16 16v204.984376h16zm0 0" fill="#ffc8bb"/><path d="m271.136719 229.117188h-254.703125c-2.210938 0-4-1.792969-4-4v-204.984376c0-11.023437 8.964844-20 20-20h222.703125c11.03125 0 20 8.976563 20 20v204.984376c0 2.214843-1.792969 4-4 4zm-250.703125-8h246.703125v-200.984376c0-6.617187-5.382813-12-12-12h-222.703125c-6.617188 0-12 5.382813-12 12zm0 0" fill="#63312d"/><path d="m457.105469 225.125h-137.96875v-137.96875h83.984375c4.832031 0 9.382812 2.265625 12.304687 6.113281l38.542969 50.855469c2.03125 2.679688 3.136719 5.960938 3.136719 9.328125zm0 0" fill="#52b8d9"/><path d="m457.105469 229.117188h-137.96875c-2.207031 0-4-1.792969-4-4v-137.960938c0-2.207031 1.792969-4 4-4h83.992187c6.046875 0 11.832032 2.878906 15.488282 7.695312l38.542968 50.847657c2.542969 3.359375 3.945313 7.527343 3.945313 11.746093v71.671876c0 2.214843-1.792969 4-4 4zm-133.96875-8h129.96875v-67.671876c0-2.480468-.832031-4.9375-2.320313-6.914062l-38.546875-50.847656c-2.148437-2.839844-5.550781-4.527344-9.109375-4.527344h-79.992187zm0 0" fill="#63312d"/><path d="m453.96875 144.125-27.59375-36.410156h-79.238281v45.273437h109.894531c-.09375-3.199219-1.121094-6.304687-3.0625-8.863281zm0 0" fill="#d1d1d1"/><path d="m457.023438 156.996094h-109.886719c-2.207031 0-4-1.792969-4-4v-45.28125c0-2.207032 1.792969-4 4-4h79.238281c1.25 0 2.433594.585937 3.183594 1.585937l27.59375 36.40625c2.40625 3.175781 3.742187 7.039063 3.863281 11.167969.03125 1.082031-.375 2.128906-1.136719 2.90625-.734375.773438-1.773437 1.214844-2.855468 1.214844zm-105.886719-8h101.039062c-.351562-.878906-.824219-1.703125-1.390625-2.457032l-26.394531-34.824218h-73.253906zm0 0" fill="#63312d"/><path d="m409.105469 225.125h-137.96875v-137.96875h83.984375c4.832031 0 9.382812 2.265625 12.304687 6.113281l38.542969 50.855469c2.03125 2.679688 3.136719 5.960938 3.136719 9.328125zm0 0" fill="#84dbff"/><path d="m287.136719 103.15625h83.984375c1.488281 0 2.925781.28125 4.320312.6875l-8.015625-10.574219c-2.921875-3.847656-7.472656-6.113281-12.304687-6.113281h-83.984375v137.96875h16zm0 0" fill="#caf4ff"/><path d="m409.105469 229.117188h-137.96875c-2.207031 0-4-1.792969-4-4v-137.960938c0-2.207031 1.792969-4 4-4h83.992187c6.046875 0 11.832032 2.878906 15.488282 7.695312l38.542968 50.847657c2.542969 3.359375 3.945313 7.527343 3.945313 11.746093v71.671876c0 2.214843-1.792969 4-4 4zm-133.96875-8h129.96875v-67.671876c0-2.480468-.832031-4.9375-2.320313-6.914062l-38.546875-50.847656c-2.148437-2.839844-5.550781-4.527344-9.109375-4.527344h-79.992187zm0 0" fill="#63312d"/><path d="m458.273438 252.132812h-407.960938v-27.015624h407.960938c4.414062 0 8 3.582031 8 8v11.015624c0 4.421876-3.585938 8-8 8zm0 0" fill="#d1d1d1"/><path d="m458.273438 256.132812h-407.960938c-2.207031 0-4-1.792968-4-4v-27.015624c0-2.210938 1.792969-4 4-4h407.953125c6.613281 0 12 5.382812 12 12v11.015624c.007813 6.625-5.378906 12-11.992187 12zm-403.960938-8h403.953125c2.199219 0 4-1.792968 4-4v-11.015624c0-2.210938-1.800781-4-4-4h-403.953125zm0 0" fill="#63312d"/><path d="m411.960938 252.132812h-399.960938c-4.414062 0-8-3.585937-8-8v-11.015624c0-4.417969 3.585938-8 8-8h399.960938c4.414062 0 8 3.582031 8 8v11.015624c0 4.421876-3.585938 8-8 8zm0 0" fill="#f8f3f3"/><path d="m411.960938 256.132812h-399.960938c-6.617188 0-12-5.386718-12-12v-11.015624c0-6.617188 5.382812-12 12-12h399.953125c6.613281 0 12 5.382812 12 12v11.015624c.007813 6.625-5.378906 12-11.992187 12zm-399.960938-27.015624c-2.199219 0-4 1.789062-4 4v11.015624c0 2.207032 1.800781 4 4 4h399.953125c2.199219 0 4-1.792968 4-4v-11.015624c0-2.210938-1.800781-4-4-4zm0 0" fill="#63312d"/><path d="m405.96875 144.125-27.59375-36.410156h-79.238281v45.273437h109.894531c-.09375-3.199219-1.121094-6.304687-3.0625-8.863281zm0 0" fill="#f8f3f3"/><path d="m409.023438 156.996094h-109.886719c-2.207031 0-4-1.792969-4-4v-45.28125c0-2.207032 1.792969-4 4-4h79.238281c1.25 0 2.433594.585937 3.183594 1.585937l27.59375 36.40625c2.40625 3.175781 3.742187 7.039063 3.863281 11.167969.03125 1.082031-.375 2.128906-1.136719 2.90625-.734375.773438-1.773437 1.214844-2.855468 1.214844zm-105.886719-8h101.039062c-.351562-.878906-.824219-1.703125-1.390625-2.457032l-26.394531-34.824218h-73.253906zm0 0" fill="#63312d"/><path d="m295.136719 152.996094h8v70.335937h-8zm0 0" fill="#63312d"/><path d="m314.886719 166.15625h19.25v8h-19.25zm0 0" fill="#63312d"/><path d="m364.257812 142.164062h19.628907v30.75h-19.628907zm0 0" fill="#84dbff"/><path d="m383.886719 176.90625h-19.628907c-2.210937 0-4-1.789062-4-4v-30.75c0-2.207031 1.789063-4 4-4h19.628907c2.210937 0 4 1.792969 4 4v30.75c0 2.210938-1.789063 4-4 4zm-15.628907-8h11.628907v-22.75h-11.628907zm0 0" fill="#63312d"/><path d="m109.257812 302.085938c25.40625 0 46-20.59375 46-46 0-25.410157-20.59375-46-46-46h-25.882812v92zm0 0" fill="#52b8d9"/><path d="m109.257812 306.085938h-25.882812c-2.207031 0-4-1.792969-4-4v-92c0-2.210938 1.792969-4 4-4h25.882812c27.566407 0 50 22.429687 50 50 0 27.566406-22.433593 50-50 50zm-21.890624-8h21.878906c23.160156 0 42-18.84375 42-42 0-23.160157-18.839844-42-42-42h-21.878906zm0 0" fill="#63312d"/><path d="m129.367188 256.085938c0 25.402343-20.59375 46-46 46-25.402344 0-46-20.597657-46-46 0-25.40625 20.597656-46 46-46 25.40625 0 46 20.59375 46 46zm0 0" fill="#84dbff"/><path d="m83.367188 306.085938c-27.566407 0-50-22.433594-50-50 0-27.570313 22.433593-50 50-50 27.570312 0 50 22.429687 50 50 0 27.566406-22.421876 50-50 50zm0-92c-23.160157 0-42 18.839843-42 42 0 23.15625 18.839843 42 42 42 23.160156 0 42-18.84375 42-42 0-23.160157-18.839844-42-42-42zm0 0" fill="#63312d"/><path d="m101.367188 256.085938c0 9.9375-8.058594 18-18 18-9.941407 0-18-8.0625-18-18 0-9.941407 8.058593-18 18-18 9.941406 0 18 8.058593 18 18zm0 0" fill="#f8f3f3"/><path d="m83.367188 278.085938c-12.136719 0-22-9.867188-22-22 0-12.136719 9.863281-22 22-22 12.136718 0 22 9.863281 22 22 0 12.132812-9.863282 22-22 22zm0-36c-7.71875 0-14 6.277343-14 14 0 7.71875 6.28125 14 14 14 7.722656 0 14-6.28125 14-14 0-7.722657-6.277344-14-14-14zm0 0" fill="#63312d"/><path d="m353.0625 302.085938c25.410156 0 46-20.59375 46-46 0-25.410157-20.589844-46-46-46h-25.878906v92zm0 0" fill="#52b8d9"/><path d="m353.0625 306.085938h-25.878906c-2.207032 0-4-1.792969-4-4v-92c0-2.210938 1.792968-4 4-4h25.878906c27.570312 0 50 22.429687 50 50 0 27.566406-22.421875 50-50 50zm-21.878906-8h21.878906c23.160156 0 42-18.84375 42-42 0-23.160157-18.839844-42-42-42h-21.878906zm0 0" fill="#63312d"/><path d="m373.183594 256.085938c0 25.402343-20.59375 46-46 46s-46-20.597657-46-46c0-25.40625 20.59375-46 46-46s46 20.59375 46 46zm0 0" fill="#84dbff"/><path d="m327.183594 306.085938c-27.566406 0-50-22.433594-50-50 0-27.570313 22.433594-50 50-50 27.570312 0 50 22.429687 50 50 0 27.566406-22.429688 50-50 50zm0-92c-23.160156 0-42 18.839843-42 42 0 23.15625 18.839844 42 42 42s42-18.84375 42-42c0-23.160157-18.847656-42-42-42zm0 0" fill="#63312d"/><path d="m345.183594 256.085938c0 9.9375-8.058594 18-18 18s-18-8.0625-18-18c0-9.941407 8.058594-18 18-18s18 8.058593 18 18zm0 0" fill="#f8f3f3"/><g fill="#63312d"><path d="m327.183594 278.085938c-12.136719 0-22-9.867188-22-22 0-12.136719 9.863281-22 22-22 12.136718 0 22 9.863281 22 22 0 12.132812-9.871094 22-22 22zm0-36c-7.71875 0-14 6.277343-14 14 0 7.71875 6.28125 14 14 14s14-6.28125 14-14c0-7.722657-6.28125-14-14-14zm0 0"/><path d="m55.9375 42.15625h54.878906v8h-54.878906zm0 0"/><path d="m55.9375 62.660156h54.878906v8h-54.878906zm0 0"/><path d="m55.9375 83.15625h54.878906v8h-54.878906zm0 0"/><path d="m319.296875 107.714844h8v45.28125h-8zm0 0"/></g></svg>