<svg height="465pt" viewBox="-29 0 465 465.104" width="465pt" xmlns="http://www.w3.org/2000/svg"><path d="m235.628906 213.625h-115.21875c-64.253906 0-116.351562 52.09375-116.351562 116.351562v131.128907h347.929687v-131.128907c0-64.265624-52.097656-116.351562-116.359375-116.351562zm0 0" fill="#82d9ff"/><path d="m20.058594 333.625c0-57.441406 46.5625-104 104-104h127.570312c28.054688 0 53.78125 9.933594 73.878906 26.472656-21.335937-25.929687-53.679687-42.472656-89.878906-42.472656h-115.21875c-64.261718 0-116.351562 52.09375-116.351562 116.351562v131.128907h16zm0 0" fill="#caf4ff"/><path d="m282.828125 108.816406c0 57.882813-46.925781 104.808594-104.808594 104.808594-57.882812 0-104.808593-46.925781-104.808593-104.808594 0-57.882812 46.925781-104.808594 104.808593-104.808594 57.882813 0 104.808594 46.925782 104.808594 104.808594zm0 0" fill="#f9dd9d"/><path d="m89.210938 108.816406c0-55.183594 42.671874-100.304687 96.808593-104.410156-2.648437-.199219-5.296875-.398438-8-.398438-57.886719 0-104.808593 46.929688-104.808593 104.808594 0 57.886719 46.929687 104.808594 104.808593 104.808594 2.703125 0 5.351563-.199219 8-.402344-54.136719-4.101562-96.808593-49.222656-96.808593-104.40625zm0 0" fill="#ffeecf"/><path d="m175.460938 4.136719c.855468-.023438 1.695312-.128907 2.558593-.128907h-2.558593zm0 0" fill="#efc36a"/><path d="m175.460938 213.625h2.558593c-.863281 0-1.703125-.113281-2.558593-.128906zm0 0" fill="#efc36a"/><path d="m231.445312 4h-53.425781c57.886719 0 104.808594 46.929688 104.808594 104.808594 0 57.886718-46.929687 104.808594-104.808594 104.808594h53.425781c57.886719 0 104.808594-46.921876 104.808594-104.808594 0-57.878906-46.921875-104.808594-104.808594-104.808594zm0 0" fill="#efc36a"/><path d="m351.988281 465.097656h-347.9375c-2.207031 0-3.9999998-1.792968-3.9999998-4v-131.121094c0-66.359374 53.9921878-120.351562 120.3515628-120.351562h115.226562c66.359375 0 120.351563 53.992188 120.351563 120.351562v131.128907c.007812 2.207031-1.785157 3.992187-3.992188 3.992187zm-343.9375-8h339.929688v-127.121094c0-61.953124-50.402344-112.351562-112.351563-112.351562h-115.21875c-61.949218 0-112.351562 50.398438-112.351562 112.351562v127.121094zm0 0" fill="#63312d"/><path d="m69.210938 318.734375h8v142.363281h-8zm0 0" fill="#63312d"/><path d="m287.402344 321.230469h8v139.875h-8zm0 0" fill="#63312d"/><path d="m287.003906 213.625h-51.375c64.253906 0 116.351563 52.09375 116.351563 116.351562v131.128907h51.375v-131.128907c0-64.265624-52.085938-116.351562-116.351563-116.351562zm0 0" fill="#52b8d9"/><path d="m403.363281 465.097656h-51.375c-2.207031 0-4-1.792968-4-4v-131.121094c0-61.953124-50.398437-112.351562-112.351562-112.351562-2.207031 0-4-1.792969-4-4 0-2.210938 1.792969-4 4-4h51.375c66.359375 0 120.351562 53.992188 120.351562 120.351562v131.128907c0 2.207031-1.792969 3.992187-4 3.992187zm-47.375-8h43.375v-127.121094c0-61.953124-50.398437-112.351562-112.351562-112.351562h-8.214844c45.109375 17.382812 77.191406 61.191406 77.191406 112.351562zm0 0" fill="#63312d"/><path d="m235.628906 213.625h-115.21875c-4.917968 0-9.734375.40625-14.496094 1l69.546876 104.414062 69.878906-104.917968c-3.207032-.273438-6.433594-.496094-9.710938-.496094zm0 0" fill="#f8f3f3"/><path d="m175.460938 323.03125c-1.335938 0-2.585938-.664062-3.328126-1.785156l-69.542968-104.40625c-.769532-1.160156-.890625-2.625-.3125-3.878906.574218-1.265626 1.765625-2.136719 3.144531-2.304688 5.621094-.695312 10.382813-1.023438 14.988281-1.023438h115.21875c3.390625 0 6.71875.222657 10.039063.503907 1.417969.121093 2.65625.976562 3.273437 2.246093.613282 1.28125.511719 2.785157-.273437 3.960938l-69.878907 104.921875c-.746093 1.101563-1.992187 1.765625-3.328124 1.765625zm-62.535157-105.109375 62.535157 93.894531 62.703124-94.152344c-.839843-.023437-1.679687-.039062-2.535156-.039062h-115.21875c-2.398437 0-4.863281.09375-7.484375.296875zm0 0" fill="#63312d"/><path d="m78.445312 76.046875h199.160157l-9.753907 20.3125c-7.382812 15.375-22.925781 25.160156-39.984374 25.160156h-99.679688c-17.054688 0-32.597656-9.785156-39.984375-25.160156zm0 0" fill="#f9a287"/><path d="m248.171875 105.511719h-116.296875c-11.984375 0-22.902344-6.871094-28.085938-17.671875l-5.664062-11.792969h-19.679688l9.75 20.3125c7.382813 15.375 22.929688 25.160156 39.984376 25.160156h99.679687c15.648437 0 29.945313-8.296875 37.914063-21.527343-5.089844 3.488281-11.175782 5.519531-17.601563 5.519531zm0 0" fill="#ffc8bb"/><path d="m227.867188 125.511719h-99.679688c-18.488281 0-35.589844-10.769531-43.589844-27.433594l-9.753906-20.308594c-.589844-1.242187-.511719-2.699219.214844-3.859375.738281-1.167968 2.007812-1.871094 3.386718-1.871094h199.160157c1.375 0 2.65625.703126 3.382812 1.871094.726563 1.167969.816407 2.625.214844 3.859375l-9.75 20.308594c-7.992187 16.664063-25.105469 27.433594-43.585937 27.433594zm-143.0625-45.464844 7 14.578125c6.671874 13.902344 20.960937 22.886719 36.382812 22.886719h99.679688c15.425781 0 29.703124-8.984375 36.386718-22.886719l7-14.578125zm0 0" fill="#63312d"/><path d="m178.011719 217.625h-2.550781c-2.207032 0-4-1.792969-4-4v-.128906c0-1.082032.429687-2.113282 1.199218-2.855469.777344-.753906 2.054688-1.074219 2.886719-1.144531l2.464844.128906c2.207031 0 4 1.789062 4 4 0 2.207031-1.792969 4-4 4zm0 0" fill="#63312d"/><path d="m277.53125 76.046875h53.425781c-13.769531-41.824219-53.082031-72.039063-99.511719-72.039063h-53.425781c28.945313 0 55.144531 11.726563 74.113281 30.695313 7.109376 7.113281 13.207032 15.242187 18.046876 24.152344 2.960937 5.449219 5.382812 11.214843 7.351562 17.191406zm0 0" fill="#db785a"/><path d="m330.957031 80.046875h-53.425781c-1.726562 0-3.253906-1.109375-3.800781-2.75-1.949219-5.929687-4.328125-11.488281-7.0625-16.535156-4.632813-8.523438-10.472657-16.335938-17.359375-23.234375-19.039063-19.039063-44.351563-29.527344-71.28125-29.527344-2.207032 0-4-1.792969-4-4s1.792968-4 4-4h53.425781c47.070313 0 88.582031 30.054688 103.3125 74.792969.398437 1.214843.191406 2.550781-.5625 3.589843-.757813 1.042969-1.96875 1.664063-3.246094 1.664063zm-50.570312-8h44.882812c-15.058593-38.527344-52.089843-64.039063-93.824219-64.039063h-12.320312c13.246094 5.398438 25.40625 13.449219 35.832031 23.871094 7.4375 7.433594 13.734375 15.875 18.734375 25.074219 2.535156 4.664063 4.785156 9.734375 6.695313 15.09375zm0 0" fill="#63312d"/><path d="m231.445312 217.625h-53.417968c-2.207032 0-4-1.792969-4-4 0-2.210938 1.792968-4 4-4 6.832031 0 13.664062-.6875 20.3125-2.050781 22.417968-4.582031 42.824218-16.886719 57.472656-34.636719 6.214844-7.539062 11.304688-15.90625 15.101562-24.882812 5.257813-12.421876 7.921876-25.621094 7.921876-39.238282 0-6.832031-.6875-13.671875-2.046876-20.328125-.695312-3.425781-1.695312-7.082031-3.050781-11.191406-.398437-1.21875-.191406-2.554687.5625-3.59375.75-1.039063 1.960938-1.65625 3.238281-1.65625h53.425782c1.726562 0 3.253906 1.113281 3.800781 2.753906 3.644531 11.085938 5.496094 22.527344 5.496094 34.015625-.007813 59.992188-48.816407 108.808594-108.816407 108.808594zm-12.433593-8h12.441406c55.582031 0 100.808594-45.226562 100.808594-100.808594 0-9.6875-1.425781-19.351562-4.234375-28.769531h-45.078125c.671875 2.394531 1.230469 4.65625 1.671875 6.839844 1.472656 7.175781 2.207031 14.554687 2.207031 21.929687 0 14.6875-2.871094 28.945313-8.550781 42.351563-4.105469 9.6875-9.585938 18.726562-16.296875 26.855469-11.535157 13.984374-26.382813 24.832031-42.96875 31.601562zm0 0" fill="#63312d"/><path d="m178.035156 217.625c-2.207031 0-4.007812-1.792969-4.007812-4 0-2.210938 1.777344-4 3.992187-4h.023438c2.210937 0 4 1.789062 4 4 0 2.207031-1.800781 4-4.007813 4zm0 0" fill="#63312d"/><path d="m270.179688 58.855469c-4.839844-8.910157-10.9375-17.039063-18.046876-24.152344-18.96875-18.96875-45.167968-30.695313-74.113281-30.695313-46.429687 0-85.742187 30.222657-99.511719 72.039063h199.023438c-1.96875-5.976563-4.390625-11.742187-7.351562-17.191406zm0 0" fill="#f9a287"/><path d="m185.269531 4.367188c-2.410156-.167969-4.800781-.367188-7.25-.367188-46.429687 0-85.742187 30.222656-99.511719 72.039062h16c12.894532-39.160156 48.191407-68.144531 90.761719-71.671874zm0 0" fill="#ffc8bb"/><g fill="#63312d"><path d="m277.53125 80.046875h-199.023438c-1.28125 0-2.488281-.613281-3.238281-1.65625-.753906-1.039063-.960937-2.375-.5625-3.589844 14.730469-44.738281 56.242188-74.7929685 103.3125-74.7929685 29.066407 0 56.382813 11.3203125 76.9375 31.8632815 7.4375 7.433594 13.734375 15.871094 18.734375 25.074218 2.96875 5.460938 5.535156 11.46875 7.640625 17.847657.398438 1.214843.191407 2.550781-.558593 3.589843-.753907 1.042969-1.953126 1.664063-3.242188 1.664063zm-193.335938-8h187.664063c-1.535156-3.976563-3.28125-7.757813-5.191406-11.277344-4.632813-8.53125-10.472657-16.34375-17.359375-23.234375-19.039063-19.039062-44.351563-29.519531-71.28125-29.519531-41.742188-.007813-78.773438 25.503906-93.832032 64.03125zm0 0"/><path d="m178.019531 217.625c-.566406 0-1.128906-.03125-1.6875-.074219l-.96875-.054687c-59.527343-1.449219-106.160156-49.183594-106.160156-108.679688 0-11.488281 1.847656-22.9375 5.496094-34.015625.542969-1.640625 2.074219-2.753906 3.800781-2.753906h199.023438c1.730468 0 3.265624 1.113281 3.800781 2.753906 1.449219 4.40625 2.519531 8.367188 3.289062 12.09375 1.472657 7.175781 2.207031 14.554688 2.207031 21.929688 0 14.6875-2.871093 28.945312-8.550781 42.351562-4.105469 9.6875-9.585937 18.726563-16.296875 26.855469-15.808594 19.160156-37.839844 32.433594-62.039062 37.382812-7.160156 1.464844-14.539063 2.210938-21.914063 2.210938zm-96.574219-137.578125c-2.816406 9.417969-4.234374 19.082031-4.234374 28.769531 0 55.121094 43.199218 99.34375 98.34375 100.679688l2.464843.128906c6.832031 0 13.671875-.6875 20.320313-2.050781 22.417968-4.582031 42.824218-16.886719 57.472656-34.636719 6.214844-7.539062 11.304688-15.90625 15.101562-24.882812 5.257813-12.421876 7.921876-25.621094 7.921876-39.238282 0-6.832031-.6875-13.671875-2.046876-20.328125-.535156-2.640625-1.257812-5.425781-2.175781-8.449219h-193.167969zm0 0"/><path d="m178.019531 217.625h-.007812c-.296875 0-.589844-.007812-.886719-.023438-.265625-.007812-.527344-.035156-.800781-.050781l-.953125-.046875c-2.207032-.046875-3.960938-1.878906-3.910156-4.089844.046874-2.207031 1.542968-3.757812 4.085937-3.910156l2.472656.128906c2.207031 0 4 1.792969 4 4 0 2.207032-1.792969 3.992188-4 3.992188zm0 0"/><path d="m258.890625 179.480469c-.894531 0-1.796875-.304688-2.542969-.914063-.960937-.789062-1.457031-1.933594-1.457031-3.085937 0-.894531.304687-1.800781.914063-2.542969 6.214843-7.539062 11.304687-15.90625 15.101562-24.882812.859375-2.039063 3.234375-2.976563 5.242188-2.125 1.527343.644531 2.441406 2.125 2.441406 3.6875 0 .519531-.105469 1.046874-.320313 1.550781-4.105469 9.6875-9.585937 18.726562-16.296875 26.855469-.785156.960937-1.929687 1.457031-3.082031 1.457031zm0 0"/><path d="m274.597656 153.609375c-.523437 0-1.050781-.105469-1.5625-.320313-1.527344-.648437-2.4375-2.128906-2.4375-3.679687 0-.519531.101563-1.050781.316406-1.5625 5.257813-12.421875 7.921876-25.621094 7.921876-39.238281 0-2.207032 1.792968-4 4-4 2.207031 0 4 1.792968 4 4 0 14.6875-2.871094 28.945312-8.550782 42.351562-.648437 1.535156-2.128906 2.449219-3.6875 2.449219zm0 0"/><path d="m178.035156 217.625h-.007812c-2.207032 0-4-1.792969-4-4 0-2.210938 1.792968-4 4-4 6.832031 0 13.671875-.6875 20.320312-2.050781 2.152344-.429688 4.28125.953125 4.71875 3.121093.449219 2.167969-.949218 4.28125-3.117187 4.71875-7.175781 1.464844-14.546875 2.210938-21.914063 2.210938zm0 0"/><path d="m199.140625 215.496094c-1.855469 0-3.527344-1.304688-3.914063-3.199219-.054687-.273437-.078124-.535156-.078124-.808594 0-1.855469 1.304687-3.527343 3.199218-3.914062 22.417969-4.582031 42.824219-16.886719 57.472656-34.636719 1.40625-1.707031 3.917969-1.945312 5.632813-.539062.957031.792968 1.453125 1.9375 1.453125 3.089843 0 .894531-.300781 1.800781-.910156 2.542969-15.808594 19.160156-37.839844 32.433594-62.039063 37.382812-.28125.050782-.554687.082032-.816406.082032zm0 0"/></g><path d="m119.714844 305.59375h171.6875v155.503906h-171.6875zm0 0" fill="#efc36a"/><path d="m291.402344 465.105469h-171.6875c-2.207032 0-4-1.792969-4-4v-155.511719c0-2.210938 1.792968-4 4-4h171.6875c2.210937 0 4 1.789062 4 4v155.503906c0 2.214844-1.789063 4.007813-4 4.007813zm-167.6875-8h163.6875v-147.511719h-163.6875zm0 0" fill="#63312d"/><path d="m73.210938 305.59375h171.6875v155.503906h-171.6875zm0 0" fill="#f9dd9d"/><path d="m89.210938 321.59375h155.6875v-16h-171.6875v155.511719h16zm0 0" fill="#ffeecf"/><path d="m244.890625 465.105469h-171.679687c-2.207032 0-4-1.792969-4-4v-155.511719c0-2.210938 1.792968-4 4-4h171.679687c2.210937 0 4 1.789062 4 4v155.503906c0 2.214844-1.78125 4.007813-4 4.007813zm-167.679687-8h163.679687v-147.511719h-163.679687zm0 0" fill="#63312d"/><path d="m139.914062 305.59375h38.273438v51.832031h-38.273438zm0 0" fill="#f8f3f3"/><path d="m178.1875 361.433594h-38.273438c-2.207031 0-4-1.792969-4-4v-51.839844c0-2.210938 1.792969-4 4-4h38.273438c2.207031 0 4 1.789062 4 4v51.832031c0 2.214844-1.792969 4.007813-4 4.007813zm-34.273438-8h30.273438v-43.839844h-30.273438zm0 0" fill="#63312d"/><path d="m178.035156 179.335938c-14.671875 0-28.414062-7.246094-36.742187-19.398438l6.589843-4.523438c6.839844 9.96875 18.113282 15.921876 30.152344 15.921876 12.039063 0 23.3125-5.953126 30.152344-15.921876l6.59375 4.523438c-8.335938 12.140625-22.074219 19.398438-36.746094 19.398438zm0 0" fill="#63312d"/></svg>