<svg height="479pt" viewBox="-55 0 479 479.328" width="479pt" xmlns="http://www.w3.org/2000/svg"><path d="m310.078125 466.273438h-237.253906c-8.839844 0-16-7.160157-16-16v-430.273438c0-8.839844 7.160156-16 16-16h237.253906c8.839844 0 16 7.160156 16 16v430.265625c0 8.839844-7.160156 16.007813-16 16.007813zm0 0" fill="#82d9ff"/><path d="m72.824219 28.671875c0-4.414063 3.582031-8 8-8h245.253906v-.671875c0-8.839844-7.160156-16-16-16h-237.253906c-8.839844 0-16 7.160156-16 16v430.265625c0 8.839844 7.160156 16 16 16zm0 0" fill="#caf4ff"/><path d="m326.121094 20.015625v40.480469h-269.28125v-40.480469c0-8.878906 7.121094-16 16-16h237.28125c8.796875 0 16 7.121094 16 16zm0 0" fill="#f9dd9d"/><path d="m326.121094 395.136719v55.121093c0 8.878907-7.203125 16-16 16h-237.28125c-8.878906 0-16-7.121093-16-16v-55.121093zm0 0" fill="#f9dd9d"/><path d="m56.839844 395.136719h16v71.121093c-8.878906 0-16-7.121093-16-16zm0 0" fill="#ffeecf"/><path d="m326.121094 20.015625v.640625h-245.28125c-4.402344 0-8 3.601562-8 8v31.839844h-16v-40.480469c0-8.878906 7.121094-16 16-16h237.28125c8.796875 0 16 7.121094 16 16zm0 0" fill="#ffeecf"/><path d="m310.078125 470.273438h-237.253906c-11.023438 0-20-8.976563-20-20v-430.273438c0-11.023438 8.976562-20 20-20h237.253906c11.023437 0 20 8.976562 20 20v430.265625c0 11.03125-8.96875 20.007813-20 20.007813zm-237.253906-462.273438c-6.617188 0-12 5.382812-12 12v430.265625c0 6.613281 5.382812 12 12 12h237.253906c6.617187 0 12-5.386719 12-12v-430.265625c0-6.617188-5.382813-12-12-12zm0 0" fill="#63312d"/><path d="m349.765625 4h-39.679687c8.839843 0 16 7.160156 16 16v430.265625c0 8.839844-7.160157 16-16 16h39.679687c8.839844 0 16-7.160156 16-16v-430.265625c0-8.832031-7.167969-16-16-16zm0 0" fill="#efc36a"/><path d="m349.765625 470.273438h-39.679687c-2.207032 0-4-1.792969-4-4 0-2.210938 1.792968-4 4-4 6.617187 0 12-5.386719 12-12v-430.273438c0-6.617188-5.382813-12-12-12-2.207032 0-4-1.792969-4-4s1.792968-4 4-4h39.679687c11.027344 0 20 8.976562 20 20v430.273438c0 11.023437-8.972656 20-20 20zm-23.695313-8h23.695313c6.617187 0 12-5.386719 12-12v-430.273438c0-6.617188-5.382813-12-12-12h-23.6875c2.511719 3.34375 4.007813 7.503906 4.007813 12v430.273438c-.007813 4.496093-1.496094 8.65625-4.015626 12zm0 0" fill="#63312d"/><path d="m56.824219 56.472656h269.253906v8h-269.253906zm0 0" fill="#63312d"/><path d="m56.824219 391.136719h269.253906v8h-269.253906zm0 0" fill="#63312d"/><path d="m178.351562 417.886719h26.273438v26.273437h-26.273438zm0 0" fill="#f8f3f3"/><path d="m204.613281 448.152344h-26.269531c-2.207031 0-4-1.792969-4-4v-26.265625c0-2.207031 1.792969-4 4-4h26.269531c2.210938 0 4 1.792969 4 4v26.265625c0 2.207031-1.789062 4-4 4zm-22.269531-8h18.269531v-18.265625h-18.269531zm0 0" fill="#63312d"/><path d="m110.6875 60.472656-52.65625 88.664063h53.871094l52.648437-88.664063zm0 0" fill="#f9a287"/><path d="m111.902344 153.136719h-53.863282c-1.441406 0-2.769531-.777344-3.480468-2.015625-.710938-1.25-.695313-2.785156.039062-4.023438l52.65625-88.664062c.722656-1.21875 2.023438-1.960938 3.441406-1.960938h53.863282c1.441406 0 2.769531.773438 3.480468 2.015625.710938 1.246094.695313 2.785157-.039062 4.023438l-52.65625 88.664062c-.71875 1.214844-2.03125 1.960938-3.441406 1.960938zm-46.839844-8h44.5625l47.902344-80.664063h-44.558594zm0 0" fill="#63312d"/><path d="m56.824219 60.472656-52.65625 88.664063h53.863281l52.65625-88.664063zm0 0" fill="#f8f3f3"/><path d="m58.03125 153.136719h-53.863281c-1.441407 0-2.769531-.777344-3.480469-2.015625-.7109375-1.25-.6953125-2.785156.039062-4.023438l52.65625-88.664062c.71875-1.21875 2.023438-1.960938 3.441407-1.960938h53.863281c1.441406 0 2.769531.773438 3.480469 2.015625.710937 1.246094.695312 2.785157-.039063 4.023438l-52.65625 88.664062c-.722656 1.214844-2.027344 1.960938-3.441406 1.960938zm-46.832031-8h44.558593l47.90625-80.664063h-44.5625zm0 0" fill="#63312d"/><path d="m218.414062 60.472656-52.648437 88.664063h53.867187l52.644532-88.664063zm0 0" fill="#f9a287"/><path d="m219.632812 153.136719h-53.867187c-1.4375 0-2.765625-.777344-3.476563-2.015625-.714843-1.25-.699218-2.785156.039063-4.023438l52.65625-88.664062c.71875-1.21875 2.023437-1.960938 3.4375-1.960938h53.867187c1.4375 0 2.765626.773438 3.476563 2.015625.714844 1.246094.699219 2.785157-.039063 4.023438l-52.65625 88.664062c-.726562 1.214844-2.03125 1.960938-3.4375 1.960938zm-46.839843-8h44.558593l47.902344-80.664063h-44.558594zm0 0" fill="#63312d"/><path d="m326.121094 60.472656h-53.84375l-52.644532 88.664063h53.839844zm0 0" fill="#f8f3f3"/><path d="m273.472656 153.136719h-53.839844c-1.441406 0-2.769531-.777344-3.480468-2.015625-.714844-1.25-.695313-2.785156.039062-4.023438l52.65625-88.664062c.71875-1.21875 2.023438-1.960938 3.441406-1.960938h53.839844c1.4375 0 2.765625.773438 3.476563 2.015625.714843 1.246094.699219 2.785157-.039063 4.023438l-52.65625 88.664062c-.71875 1.214844-2.03125 1.960938-3.4375 1.960938zm-46.816406-8h44.535156l47.902344-80.664063h-44.535156zm0 0" fill="#63312d"/><path d="m273.496094 149.136719h22.894531l29.730469-50.066407v-38.597656zm0 0" fill="#d1d1d1"/><path d="m296.390625 153.136719h-22.902344c-1.441406 0-2.769531-.777344-3.480469-2.015625-.710937-1.25-.695312-2.785156.03125-4.023438l52.632813-88.664062c.917969-1.546875 2.757813-2.296875 4.503906-1.816406 1.734375.480468 2.945313 2.054687 2.945313 3.855468v38.597656c0 .722657-.195313 1.425782-.5625 2.042969l-29.726563 50.0625c-.722656 1.214844-2.03125 1.960938-3.441406 1.960938zm-15.871094-8h13.601563l28.007812-47.167969v-22.929688zm0 0" fill="#63312d"/><path d="m164.550781 60.472656-52.648437 88.664063h53.863281l52.648437-88.664063zm0 0" fill="#f8f3f3"/><path d="m165.765625 153.136719h-53.863281c-1.4375 0-2.765625-.777344-3.480469-2.015625-.710937-1.25-.695313-2.785156.042969-4.023438l52.65625-88.664062c.71875-1.21875 2.023437-1.960938 3.4375-1.960938h53.863281c1.441406 0 2.769531.773438 3.480469 2.015625.710937 1.246094.695312 2.785157-.039063 4.023438l-52.65625 88.664062c-.726562 1.214844-2.03125 1.960938-3.441406 1.960938zm-46.839844-8h44.5625l47.902344-80.664063h-44.558594zm0 0" fill="#63312d"/><path d="m4.167969 149.136719v16.191406c0 14.871094 12.054687 26.9375 26.933593 26.9375 14.875 0 26.9375-12.058594 26.9375-26.9375v-16.191406zm0 0" fill="#f8f3f3"/><path d="m58.03125 149.136719v16.191406c0 14.871094 12.054688 26.9375 26.9375 26.9375 14.871094 0 26.933594-12.058594 26.933594-26.9375v-16.191406zm0 0" fill="#f9a287"/><path d="m111.902344 149.136719v16.191406c0 14.871094 12.058594 26.9375 26.9375 26.9375 14.871094 0 26.933594-12.058594 26.933594-26.9375v-16.191406zm0 0" fill="#f8f3f3"/><path d="m165.765625 149.136719v16.191406c0 14.871094 12.058594 26.9375 26.9375 26.9375 14.871094 0 26.9375-12.058594 26.9375-26.9375v-16.191406zm0 0" fill="#f9a287"/><path d="m31.101562 196.265625c-17.054687 0-30.933593-13.875-30.933593-30.9375v-16.191406c0-2.207031 1.792969-4 4-4h53.863281c2.207031 0 4 1.792969 4 4v16.191406c0 17.054687-13.871094 30.9375-30.929688 30.9375zm-22.933593-43.128906v12.191406c0 12.648437 10.289062 22.9375 22.933593 22.9375 12.648438 0 22.929688-10.289063 22.929688-22.9375v-12.191406zm0 0" fill="#63312d"/><path d="m84.96875 196.265625c-17.058594 0-30.9375-13.875-30.9375-30.9375v-16.191406c0-2.207031 1.792969-4 4-4h53.863281c2.207031 0 4 1.792969 4 4v16.191406c.007813 17.054687-13.871093 30.9375-30.925781 30.9375zm-22.9375-43.128906v12.191406c0 12.648437 10.289062 22.9375 22.9375 22.9375 12.644531 0 22.933594-10.289063 22.933594-22.9375v-12.191406zm0 0" fill="#63312d"/><path d="m138.832031 196.265625c-17.058593 0-30.929687-13.875-30.929687-30.9375v-16.191406c0-2.207031 1.792968-4 4-4h53.863281c2.210937 0 4 1.792969 4 4v16.191406c0 17.054687-13.878906 30.9375-30.933594 30.9375zm-22.929687-43.128906v12.191406c0 12.648437 10.289062 22.9375 22.929687 22.9375s22.933594-10.289063 22.933594-22.9375v-12.191406zm0 0" fill="#63312d"/><path d="m192.695312 196.265625c-17.054687 0-30.9375-13.875-30.9375-30.9375v-16.191406c0-2.207031 1.792969-4 4-4h53.867188c2.207031 0 4 1.792969 4 4v16.191406c.007812 17.054687-13.875 30.9375-30.929688 30.9375zm-22.929687-43.128906v12.191406c0 12.648437 10.289063 22.9375 22.929687 22.9375 12.640626 0 22.9375-10.289063 22.9375-22.9375v-12.191406zm0 0" fill="#63312d"/><path d="m246.558594 149.136719v43.078125l22.921875.050781c14.871093 0 26.933593-12.058594 26.933593-26.9375v-16.191406zm0 0" fill="#d1d1d1"/><path d="m269.480469 196.265625-22.929688-.050781c-2.207031 0-3.992187-1.789063-3.992187-4v-43.078125c0-2.207031 1.792968-4 4-4h49.855468c2.210938 0 4 1.792969 4 4v16.191406c0 17.054687-13.871093 30.9375-30.933593 30.9375zm-18.921875-8.042969 18.929687.042969c12.640625 0 22.925781-10.289063 22.925781-22.9375v-12.191406h-41.855468zm0 0" fill="#63312d"/><path d="m219.632812 149.136719v16.191406c0 14.871094 12.054688 26.9375 26.933594 26.9375 14.871094 0 26.9375-12.058594 26.9375-26.9375v-16.191406zm0 0" fill="#f8f3f3"/><path d="m246.558594 196.265625c-17.054688 0-30.933594-13.875-30.933594-30.9375v-16.191406c0-2.207031 1.789062-4 4-4h53.863281c2.207031 0 4 1.792969 4 4v16.191406c0 17.054687-13.875 30.9375-30.929687 30.9375zm-22.925782-43.128906v12.191406c0 12.648437 10.285157 22.9375 22.933594 22.9375 12.648438 0 22.929688-10.289063 22.929688-22.9375v-12.191406zm0 0" fill="#63312d"/><path d="m106.457031 225.136719h170v170h-170zm0 0" fill="#52b8d9"/><g fill="#63312d"><path d="m276.457031 399.136719h-170c-2.210937 0-4-1.792969-4-4v-170c0-2.207031 1.789063-4 4-4h170c2.207031 0 4 1.792969 4 4v170c0 2.207031-1.792969 4-4 4zm-166-8h162v-162h-162zm0 0"/><path d="m106.457031 255.945312h170v8h-170zm0 0"/><path d="m187.457031 259.945312h8v135.191407h-8zm0 0"/><path d="m167.480469 310.136719h8v17.398437h-8zm0 0"/><path d="m207.421875 310.136719h8v17.398437h-8zm0 0"/></g><path d="m339.007812 381.425781-120.59375-41.105469 41.105469 120.589844 22.007813-22.007812 36.414062 36.425781 34.929688-34.9375-36.414063-36.414063zm0 0" fill="#f8f3f3"/><path d="m317.941406 479.328125c-1.0625 0-2.078125-.425781-2.832031-1.167969l-33.589844-33.59375-19.167969 19.175782c-.984374.976562-2.382812 1.378906-3.738281 1.066406-1.34375-.3125-2.429687-1.296875-2.878906-2.609375l-41.101563-120.589844c-.496093-1.441406-.121093-3.042969.957032-4.121094 1.082031-1.082031 2.671875-1.449219 4.121094-.960937l120.585937 41.105468c1.308594.445313 2.292969 1.535157 2.605469 2.878907s-.085938 2.761719-1.0625 3.734375l-19.71875 19.722656 33.589844 33.589844c1.558593 1.5625 1.558593 4.097656 0 5.65625l-34.929688 34.9375c-.757812.75-1.773438 1.175781-2.839844 1.175781zm-36.421875-44.425781c1.0625 0 2.078125.425781 2.832031 1.167968l33.589844 33.59375 29.273438-29.28125-33.589844-33.589843c-1.5625-1.5625-1.5625-4.097657 0-5.65625l18-18.007813-106.808594-36.410156 36.40625 106.808594 17.457032-17.464844c.765624-.734375 1.785156-1.160156 2.839843-1.160156zm0 0" fill="#63312d"/></svg>